# xmcd CD database file
#
# Track frame offsets:
#	183
#	13038
#	27348
#	41355
#	56938
#	71385
#	85285
#	100975
#	113928
#	127810
#	142998
#	158908
#	172828
#	188210
#	201763
#	217433
#	232040
#	247403
#	262038
#	274933
#	286010
#	298973
#	313878
#	326443
#
# Disc length: 4520 seconds
#
# Revision: 0
# Processed by: cddbd v1.4PL0 Copyright (c) Steve Scherf et al.
# Submitted via: CDex 1.50beta9
#
DISCID=7711a618
DTITLE=Jelly Roll Morton - The Best of Jelly Roll Morton
DYEAR=1993
DGENRE=Jazz
TTITLE0=King Porter Stomp
TTITLE1=Black Bottom Stomp
TTITLE2=The Chant
TTITLE3=Sidewalk Blues
TTITLE4=Dead Man Blues
TTITLE5=Steam Boat Stomp
TTITLE6=Someday,Sweetheart
TTITLE7=Grandpa's Spells
TTITLE8=Original Jelly Roll Blues
TTITLE9=Doctor Jazz
TTITLE10=Cannon Ball Blues
TTITLE11=Hyena Stomp
TTITLE12=Billy Goat Stomp
TTITLE13=Wild Man Blues
TTITLE14=Jungle Blues
TTITLE15=Beale Street Blues
TTITLE16=The Pearls
TTITLE17=Wolverine Blues
TTITLE18=Mr. Jelly Lord
TTITLE19=Georgia Swing
TTITLE20=Kansas City Stomps
TTITLE21=Shoe Shinner's Drag
TTITLE22=High Society
TTITLE23=Mamie's Blues
EXTD=YEAR: 1993
EXTT0=
EXTT1=
EXTT2=
EXTT3=
EXTT4=
EXTT5=
EXTT6=
EXTT7=
EXTT8=
EXTT9=
EXTT10=
EXTT11=
EXTT12=
EXTT13=
EXTT14=
EXTT15=
EXTT16=
EXTT17=
EXTT18=
EXTT19=
EXTT20=
EXTT21=
EXTT22=
EXTT23=
PLAYORDER=
